{
    "asset" : {
        "generator" : "Khronos glTF Blender I/O v1.6.16",
        "version" : "2.0"
    },
    "scene" : 0,
    "scenes" : [
        {
            "name" : "Scene",
            "nodes" : [
                0,
                1,
                2,
                3,
                4,
                5,
                6,
                7,
                8,
                9,
                10,
                11,
                12,
                13,
                14,
                15,
                40
            ]
        }
    ],
    "nodes" : [
        {
            "name" : "Environment",
            "rotation" : [
                0,
                1,
                0,
                -4.371138828673793e-08
            ],
            "scale" : [
                0.30480000376701355,
                0.30480000376701355,
                0.30480000376701355
            ]
        },
        {
            "name" : "Object",
            "rotation" : [
                0,
                1,
                0,
                -4.371138828673793e-08
            ],
            "scale" : [
                0.30480000376701355,
                0.30480000376701355,
                0.30480000376701355
            ]
        },
        {
            "name" : "Object.001",
            "rotation" : [
                0,
                1,
                0,
                -4.371138828673793e-08
            ],
            "scale" : [
                0.30480000376701355,
                0.30480000376701355,
                0.30480000376701355
            ]
        },
        {
            "name" : "Object.002",
            "rotation" : [
                0,
                1,
                0,
                -4.371138828673793e-08
            ],
            "scale" : [
                0.30480000376701355,
                0.30480000376701355,
                0.30480000376701355
            ]
        },
        {
            "name" : "Object.003",
            "rotation" : [
                0,
                1,
                0,
                -4.371138828673793e-08
            ],
            "scale" : [
                0.30480000376701355,
                0.30480000376701355,
                0.30480000376701355
            ]
        },
        {
            "name" : "Object.004",
            "rotation" : [
                0,
                1,
                0,
                -4.371138828673793e-08
            ],
            "scale" : [
                0.30480000376701355,
                0.30480000376701355,
                0.30480000376701355
            ]
        },
        {
            "name" : "Object.005",
            "rotation" : [
                0,
                1,
                0,
                -4.371138828673793e-08
            ],
            "scale" : [
                0.30480000376701355,
                0.30480000376701355,
                0.30480000376701355
            ]
        },
        {
            "name" : "Object.006",
            "rotation" : [
                0,
                1,
                0,
                -4.371138828673793e-08
            ],
            "scale" : [
                0.30480000376701355,
                0.30480000376701355,
                0.30480000376701355
            ]
        },
        {
            "name" : "Object.007",
            "rotation" : [
                0,
                1,
                0,
                -4.371138828673793e-08
            ],
            "scale" : [
                0.30480000376701355,
                0.30480000376701355,
                0.30480000376701355
            ]
        },
        {
            "name" : "Object.008",
            "rotation" : [
                0,
                1,
                0,
                -4.371138828673793e-08
            ],
            "scale" : [
                0.30480000376701355,
                0.30480000376701355,
                0.30480000376701355
            ]
        },
        {
            "name" : "Object.009",
            "rotation" : [
                0,
                1,
                0,
                -4.371138828673793e-08
            ],
            "scale" : [
                0.30480000376701355,
                0.30480000376701355,
                0.30480000376701355
            ]
        },
        {
            "name" : "Object.010",
            "rotation" : [
                0,
                1,
                0,
                -4.371138828673793e-08
            ],
            "scale" : [
                0.30480000376701355,
                0.30480000376701355,
                0.30480000376701355
            ]
        },
        {
            "name" : "Object.011",
            "rotation" : [
                0,
                1,
                0,
                -4.371138828673793e-08
            ],
            "scale" : [
                0.30480000376701355,
                0.30480000376701355,
                0.30480000376701355
            ]
        },
        {
            "name" : "Object.012",
            "rotation" : [
                0,
                1,
                0,
                -4.371138828673793e-08
            ],
            "scale" : [
                0.30480000376701355,
                0.30480000376701355,
                0.30480000376701355
            ]
        },
        {
            "name" : "Object.013",
            "rotation" : [
                0,
                1,
                0,
                -4.371138828673793e-08
            ],
            "scale" : [
                0.30480000376701355,
                0.30480000376701355,
                0.30480000376701355
            ]
        },
        {
            "name" : "Object.014",
            "rotation" : [
                0,
                1,
                0,
                -4.371138828673793e-08
            ],
            "scale" : [
                0.30480000376701355,
                0.30480000376701355,
                0.30480000376701355
            ]
        },
        {
            "name" : "Object.024"
        },
        {
            "children" : [
                16
            ],
            "name" : "Centrifugal Pump 185.002"
        },
        {
            "name" : "Object.025"
        },
        {
            "children" : [
                18
            ],
            "name" : "Centrifugal Pump 185.003"
        },
        {
            "mesh" : 0,
            "name" : "Centrifugal Pump 185.005"
        },
        {
            "children" : [
                20
            ],
            "name" : "Centrifugal Pump 185.004"
        },
        {
            "children" : [
                17,
                19,
                21
            ],
            "name" : "Centrifugal Pump 185.001"
        },
        {
            "children" : [
                22
            ],
            "name" : "Centrifugal Pump 185"
        },
        {
            "name" : "Object.016"
        },
        {
            "name" : "Object.017"
        },
        {
            "name" : "Object.018"
        },
        {
            "name" : "Object.019"
        },
        {
            "name" : "Object.020"
        },
        {
            "name" : "Object.021"
        },
        {
            "name" : "Object.022"
        },
        {
            "name" : "Object.023"
        },
        {
            "children" : [
                23,
                24,
                25,
                26,
                27,
                28,
                29,
                30,
                31
            ],
            "name" : "Mechanical Equipment"
        },
        {
            "name" : "Object.026"
        },
        {
            "name" : "Object.027"
        },
        {
            "children" : [
                32,
                33,
                34
            ],
            "name" : "FB1"
        },
        {
            "name" : "Object.015"
        },
        {
            "name" : "Object.028"
        },
        {
            "name" : "Object.029"
        },
        {
            "name" : "Object.030"
        },
        {
            "children" : [
                35,
                36,
                37,
                38,
                39
            ],
            "name" : "Waste Water Treatment & Reclaim System.nwd",
            "rotation" : [
                0,
                1,
                0,
                -4.371138828673793e-08
            ],
            "scale" : [
                0.30480000376701355,
                0.30480000376701355,
                0.30480000376701355
            ]
        }
    ],
    "materials" : [
        {
            "doubleSided" : true,
            "name" : "\u5f69\u73fe\u6750\u6599 255-255-255",
            "pbrMetallicRoughness" : {
                "baseColorFactor" : [
                    0.9882352948188782,
                    0.9960784316062927,
                    0.886274516582489,
                    1
                ],
                "metallicFactor" : 0,
                "roughnessFactor" : 0.2928932309150696
            }
        }
    ],
    "meshes" : [
        {
            "name" : "Mesh",
            "primitives" : [
                {
                    "attributes" : {
                        "POSITION" : 0,
                        "NORMAL" : 1
                    },
                    "indices" : 2,
                    "material" : 0
                }
            ]
        }
    ],
    "accessors" : [
        {
            "bufferView" : 0,
            "componentType" : 5126,
            "count" : 14394,
            "max" : [
                3.2292022705078125,
                1.2458019256591797,
                1.761383056640625
            ],
            "min" : [
                -2.262939453125,
                -1.3132553100585938,
                -1.762237548828125
            ],
            "type" : "VEC3"
        },
        {
            "bufferView" : 1,
            "componentType" : 5126,
            "count" : 14394,
            "type" : "VEC3"
        },
        {
            "bufferView" : 2,
            "componentType" : 5123,
            "count" : 34680,
            "type" : "SCALAR"
        }
    ],
    "bufferViews" : [
        {
            "buffer" : 0,
            "byteLength" : 172728,
            "byteOffset" : 0
        },
        {
            "buffer" : 0,
            "byteLength" : 172728,
            "byteOffset" : 172728
        },
        {
            "buffer" : 0,
            "byteLength" : 69360,
            "byteOffset" : 345456
        }
    ],
    "buffers" : [
        {
            "byteLength" : 414816,
            "uri" : "Centrifugal.bin"
        }
    ]
}
