{
    "asset" : {
        "generator" : "Khronos glTF Blender I/O v1.6.16",
        "version" : "2.0"
    },
    "scene" : 0,
    "scenes" : [
        {
            "name" : "Scene",
            "nodes" : [
                0,
                1,
                2,
                34,
                35,
                36,
                37,
                38,
                39,
                40,
                41,
                42,
                43,
                44,
                45,
                46,
                47
            ]
        }
    ],
    "nodes" : [
        {
            "name" : "Environment",
            "rotation" : [
                0,
                1,
                0,
                -4.371138828673793e-08
            ],
            "scale" : [
                0.30480000376701355,
                0.30480000376701355,
                0.30480000376701355
            ]
        },
        {
            "name" : "\u7269\u9ad4",
            "rotation" : [
                0,
                1,
                0,
                -4.371138828673793e-08
            ],
            "scale" : [
                0.30480000376701355,
                0.30480000376701355,
                0.30480000376701355
            ]
        },
        {
            "name" : "\u7269\u9ad4.001",
            "rotation" : [
                0,
                1,
                0,
                -4.371138828673793e-08
            ],
            "scale" : [
                0.30480000376701355,
                0.30480000376701355,
                0.30480000376701355
            ]
        },
        {
            "name" : "curve 0"
        },
        {
            "children" : [
                3
            ],
            "mesh" : 0,
            "name" : "VMB BOX.003"
        },
        {
            "children" : [
                4
            ],
            "name" : "VMB BOX.002"
        },
        {
            "name" : "\u7269\u9ad4.002"
        },
        {
            "name" : "\u7269\u9ad4.003"
        },
        {
            "name" : "\u7269\u9ad4.004"
        },
        {
            "name" : "\u7269\u9ad4.005"
        },
        {
            "name" : "\u7269\u9ad4.006"
        },
        {
            "name" : "\u7269\u9ad4.007"
        },
        {
            "name" : "\u7269\u9ad4.008"
        },
        {
            "name" : "\u7269\u9ad4.009"
        },
        {
            "name" : "\u7269\u9ad4.010"
        },
        {
            "name" : "\u7269\u9ad4.011"
        },
        {
            "name" : "\u7269\u9ad4.012"
        },
        {
            "children" : [
                5,
                6,
                7,
                8,
                9,
                10,
                11,
                12,
                13,
                14,
                15,
                16
            ],
            "name" : "VMB BOX.001"
        },
        {
            "children" : [
                17
            ],
            "name" : "VMB BOX"
        },
        {
            "children" : [
                18
            ],
            "name" : "Mechanical Equipment"
        },
        {
            "name" : "\u7269\u9ad4.013"
        },
        {
            "name" : "\u7269\u9ad4.014"
        },
        {
            "name" : "\u7269\u9ad4.015"
        },
        {
            "children" : [
                19,
                20,
                21,
                22
            ],
            "name" : "F10"
        },
        {
            "name" : "\u7269\u9ad4.016"
        },
        {
            "children" : [
                23,
                24
            ],
            "name" : "CHEM.nwc"
        },
        {
            "name" : "\u7269\u9ad4.017"
        },
        {
            "name" : "\u7269\u9ad4.018"
        },
        {
            "name" : "\u7269\u9ad4.019"
        },
        {
            "name" : "\u7269\u9ad4.020"
        },
        {
            "name" : "\u7269\u9ad4.021"
        },
        {
            "name" : "\u7269\u9ad4.022"
        },
        {
            "name" : "\u7269\u9ad4.023"
        },
        {
            "name" : "\u7269\u9ad4.024"
        },
        {
            "children" : [
                25,
                26,
                27,
                28,
                29,
                30,
                31,
                32,
                33
            ],
            "name" : "Chemical System.nwd",
            "rotation" : [
                0,
                1,
                0,
                -4.371138828673793e-08
            ],
            "scale" : [
                0.30480000376701355,
                0.30480000376701355,
                0.30480000376701355
            ]
        },
        {
            "name" : "\u7269\u9ad4.025",
            "rotation" : [
                0,
                1,
                0,
                -4.371138828673793e-08
            ],
            "scale" : [
                0.30480000376701355,
                0.30480000376701355,
                0.30480000376701355
            ]
        },
        {
            "name" : "\u7269\u9ad4.026",
            "rotation" : [
                0,
                1,
                0,
                -4.371138828673793e-08
            ],
            "scale" : [
                0.30480000376701355,
                0.30480000376701355,
                0.30480000376701355
            ]
        },
        {
            "name" : "\u7269\u9ad4.027",
            "rotation" : [
                0,
                1,
                0,
                -4.371138828673793e-08
            ],
            "scale" : [
                0.30480000376701355,
                0.30480000376701355,
                0.30480000376701355
            ]
        },
        {
            "name" : "\u7269\u9ad4.028",
            "rotation" : [
                0,
                1,
                0,
                -4.371138828673793e-08
            ],
            "scale" : [
                0.30480000376701355,
                0.30480000376701355,
                0.30480000376701355
            ]
        },
        {
            "name" : "\u7269\u9ad4.029",
            "rotation" : [
                0,
                1,
                0,
                -4.371138828673793e-08
            ],
            "scale" : [
                0.30480000376701355,
                0.30480000376701355,
                0.30480000376701355
            ]
        },
        {
            "name" : "\u7269\u9ad4.030",
            "rotation" : [
                0,
                1,
                0,
                -4.371138828673793e-08
            ],
            "scale" : [
                0.30480000376701355,
                0.30480000376701355,
                0.30480000376701355
            ]
        },
        {
            "name" : "\u7269\u9ad4.031",
            "rotation" : [
                0,
                1,
                0,
                -4.371138828673793e-08
            ],
            "scale" : [
                0.30480000376701355,
                0.30480000376701355,
                0.30480000376701355
            ]
        },
        {
            "name" : "\u7269\u9ad4.032",
            "rotation" : [
                0,
                1,
                0,
                -4.371138828673793e-08
            ],
            "scale" : [
                0.30480000376701355,
                0.30480000376701355,
                0.30480000376701355
            ]
        },
        {
            "name" : "\u7269\u9ad4.033",
            "rotation" : [
                0,
                1,
                0,
                -4.371138828673793e-08
            ],
            "scale" : [
                0.30480000376701355,
                0.30480000376701355,
                0.30480000376701355
            ]
        },
        {
            "name" : "\u7269\u9ad4.034",
            "rotation" : [
                0,
                1,
                0,
                -4.371138828673793e-08
            ],
            "scale" : [
                0.30480000376701355,
                0.30480000376701355,
                0.30480000376701355
            ]
        },
        {
            "name" : "\u7269\u9ad4.035",
            "rotation" : [
                0,
                1,
                0,
                -4.371138828673793e-08
            ],
            "scale" : [
                0.30480000376701355,
                0.30480000376701355,
                0.30480000376701355
            ]
        },
        {
            "name" : "\u7269\u9ad4.036",
            "rotation" : [
                0,
                1,
                0,
                -4.371138828673793e-08
            ],
            "scale" : [
                0.30480000376701355,
                0.30480000376701355,
                0.30480000376701355
            ]
        },
        {
            "name" : "\u7269\u9ad4.037",
            "rotation" : [
                0,
                1,
                0,
                -4.371138828673793e-08
            ],
            "scale" : [
                0.30480000376701355,
                0.30480000376701355,
                0.30480000376701355
            ]
        }
    ],
    "materials" : [
        {
            "doubleSided" : true,
            "name" : "CHEM",
            "pbrMetallicRoughness" : {
                "baseColorFactor" : [
                    1,
                    0.501960813999176,
                    1,
                    1
                ],
                "metallicFactor" : 0,
                "roughnessFactor" : 0.2928932309150696
            }
        }
    ],
    "meshes" : [
        {
            "name" : "\u7db2\u683c",
            "primitives" : [
                {
                    "attributes" : {
                        "POSITION" : 0,
                        "NORMAL" : 1
                    },
                    "indices" : 2,
                    "material" : 0
                }
            ]
        }
    ],
    "accessors" : [
        {
            "bufferView" : 0,
            "componentType" : 5126,
            "count" : 89268,
            "max" : [
                0.3087158203125,
                2.571354389190674,
                1.3836898803710938
            ],
            "min" : [
                -0.578125,
                -1.181318998336792,
                -0.7160415649414062
            ],
            "type" : "VEC3"
        },
        {
            "bufferView" : 1,
            "componentType" : 5126,
            "count" : 89268,
            "type" : "VEC3"
        },
        {
            "bufferView" : 2,
            "componentType" : 5125,
            "count" : 246192,
            "type" : "SCALAR"
        }
    ],
    "bufferViews" : [
        {
            "buffer" : 0,
            "byteLength" : 1071216,
            "byteOffset" : 0
        },
        {
            "buffer" : 0,
            "byteLength" : 1071216,
            "byteOffset" : 1071216
        },
        {
            "buffer" : 0,
            "byteLength" : 984768,
            "byteOffset" : 2142432
        }
    ],
    "buffers" : [
        {
            "byteLength" : 3127200,
            "uri" : "CMVB.bin"
        }
    ]
}
