{
    "asset" : {
        "generator" : "Khronos glTF Blender I/O v1.6.16",
        "version" : "2.0"
    },
    "scene" : 0,
    "scenes" : [
        {
            "name" : "Scene",
            "nodes" : [
                0,
                1,
                2,
                29,
                30,
                31,
                32,
                33,
                34,
                35,
                36,
                37,
                38,
                39,
                40,
                41,
                42
            ]
        }
    ],
    "nodes" : [
        {
            "name" : "Environment",
            "rotation" : [
                0,
                1,
                0,
                -4.371138828673793e-08
            ],
            "scale" : [
                0.30480000376701355,
                0.30480000376701355,
                0.30480000376701355
            ]
        },
        {
            "name" : "\u7269\u9ad4",
            "rotation" : [
                0,
                1,
                0,
                -4.371138828673793e-08
            ],
            "scale" : [
                0.30480000376701355,
                0.30480000376701355,
                0.30480000376701355
            ]
        },
        {
            "name" : "\u7269\u9ad4.001",
            "rotation" : [
                0,
                1,
                0,
                -4.371138828673793e-08
            ],
            "scale" : [
                0.30480000376701355,
                0.30480000376701355,
                0.30480000376701355
            ]
        },
        {
            "name" : "\u7269\u9ad4.004"
        },
        {
            "children" : [
                3
            ],
            "name" : "CCBTU.002"
        },
        {
            "name" : "\u7269\u9ad4.005"
        },
        {
            "children" : [
                5
            ],
            "name" : "CCBTU.003"
        },
        {
            "name" : "\u7269\u9ad4.006"
        },
        {
            "children" : [
                7
            ],
            "name" : "CCBTU.004"
        },
        {
            "mesh" : 0,
            "name" : "CCBTU.006"
        },
        {
            "children" : [
                9
            ],
            "name" : "CCBTU.005"
        },
        {
            "children" : [
                4,
                6,
                8,
                10
            ],
            "name" : "CCBTU.001"
        },
        {
            "children" : [
                11
            ],
            "name" : "CCBTU"
        },
        {
            "name" : "\u7269\u9ad4.007"
        },
        {
            "name" : "\u7269\u9ad4.008"
        },
        {
            "name" : "\u7269\u9ad4.009"
        },
        {
            "children" : [
                12,
                13,
                14,
                15
            ],
            "name" : "Mechanical Equipment"
        },
        {
            "name" : "\u7269\u9ad4.003"
        },
        {
            "name" : "\u7269\u9ad4.010"
        },
        {
            "children" : [
                16,
                17,
                18
            ],
            "name" : "F10"
        },
        {
            "children" : [
                19
            ],
            "name" : "FAB-03-F10-CHEM.nwc"
        },
        {
            "name" : "\u7269\u9ad4.002"
        },
        {
            "name" : "\u7269\u9ad4.011"
        },
        {
            "name" : "\u7269\u9ad4.012"
        },
        {
            "name" : "\u7269\u9ad4.013"
        },
        {
            "name" : "\u7269\u9ad4.014"
        },
        {
            "name" : "\u7269\u9ad4.015"
        },
        {
            "name" : "\u7269\u9ad4.016"
        },
        {
            "name" : "\u7269\u9ad4.017"
        },
        {
            "children" : [
                20,
                21,
                22,
                23,
                24,
                25,
                26,
                27,
                28
            ],
            "name" : "Chemical System.nwd",
            "rotation" : [
                0,
                1,
                0,
                -4.371138828673793e-08
            ]
        },
        {
            "name" : "\u7269\u9ad4.018",
            "rotation" : [
                0,
                1,
                0,
                -4.371138828673793e-08
            ],
            "scale" : [
                0.30480000376701355,
                0.30480000376701355,
                0.30480000376701355
            ]
        },
        {
            "name" : "\u7269\u9ad4.019",
            "rotation" : [
                0,
                1,
                0,
                -4.371138828673793e-08
            ],
            "scale" : [
                0.30480000376701355,
                0.30480000376701355,
                0.30480000376701355
            ]
        },
        {
            "name" : "\u7269\u9ad4.020",
            "rotation" : [
                0,
                1,
                0,
                -4.371138828673793e-08
            ],
            "scale" : [
                0.30480000376701355,
                0.30480000376701355,
                0.30480000376701355
            ]
        },
        {
            "name" : "\u7269\u9ad4.021",
            "rotation" : [
                0,
                1,
                0,
                -4.371138828673793e-08
            ],
            "scale" : [
                0.30480000376701355,
                0.30480000376701355,
                0.30480000376701355
            ]
        },
        {
            "name" : "\u7269\u9ad4.022",
            "rotation" : [
                0,
                1,
                0,
                -4.371138828673793e-08
            ],
            "scale" : [
                0.30480000376701355,
                0.30480000376701355,
                0.30480000376701355
            ]
        },
        {
            "name" : "\u7269\u9ad4.023",
            "rotation" : [
                0,
                1,
                0,
                -4.371138828673793e-08
            ],
            "scale" : [
                0.30480000376701355,
                0.30480000376701355,
                0.30480000376701355
            ]
        },
        {
            "name" : "\u7269\u9ad4.024",
            "rotation" : [
                0,
                1,
                0,
                -4.371138828673793e-08
            ],
            "scale" : [
                0.30480000376701355,
                0.30480000376701355,
                0.30480000376701355
            ]
        },
        {
            "name" : "\u7269\u9ad4.025",
            "rotation" : [
                0,
                1,
                0,
                -4.371138828673793e-08
            ],
            "scale" : [
                0.30480000376701355,
                0.30480000376701355,
                0.30480000376701355
            ]
        },
        {
            "name" : "\u7269\u9ad4.026",
            "rotation" : [
                0,
                1,
                0,
                -4.371138828673793e-08
            ],
            "scale" : [
                0.30480000376701355,
                0.30480000376701355,
                0.30480000376701355
            ]
        },
        {
            "name" : "\u7269\u9ad4.027",
            "rotation" : [
                0,
                1,
                0,
                -4.371138828673793e-08
            ],
            "scale" : [
                0.30480000376701355,
                0.30480000376701355,
                0.30480000376701355
            ]
        },
        {
            "name" : "\u7269\u9ad4.028",
            "rotation" : [
                0,
                1,
                0,
                -4.371138828673793e-08
            ],
            "scale" : [
                0.30480000376701355,
                0.30480000376701355,
                0.30480000376701355
            ]
        },
        {
            "name" : "\u7269\u9ad4.029",
            "rotation" : [
                0,
                1,
                0,
                -4.371138828673793e-08
            ],
            "scale" : [
                0.30480000376701355,
                0.30480000376701355,
                0.30480000376701355
            ]
        },
        {
            "name" : "\u7269\u9ad4.030",
            "rotation" : [
                0,
                1,
                0,
                -4.371138828673793e-08
            ],
            "scale" : [
                0.30480000376701355,
                0.30480000376701355,
                0.30480000376701355
            ]
        }
    ],
    "materials" : [
        {
            "doubleSided" : true,
            "name" : "\u5f69\u73fe\u6750\u6599 255-255-255",
            "pbrMetallicRoughness" : {
                "metallicFactor" : 0,
                "roughnessFactor" : 0.2928932309150696
            }
        }
    ],
    "meshes" : [
        {
            "name" : "\u7db2\u683c",
            "primitives" : [
                {
                    "attributes" : {
                        "POSITION" : 0,
                        "NORMAL" : 1
                    },
                    "indices" : 2,
                    "material" : 0
                }
            ]
        }
    ],
    "accessors" : [
        {
            "bufferView" : 0,
            "componentType" : 5126,
            "count" : 13728,
            "max" : [
                5.18463134765625,
                2.8310649394989014,
                1.463134765625
            ],
            "min" : [
                -3.0502777099609375,
                -4.157123565673828,
                -2.04736328125
            ],
            "type" : "VEC3"
        },
        {
            "bufferView" : 1,
            "componentType" : 5126,
            "count" : 13728,
            "type" : "VEC3"
        },
        {
            "bufferView" : 2,
            "componentType" : 5123,
            "count" : 33006,
            "type" : "SCALAR"
        }
    ],
    "bufferViews" : [
        {
            "buffer" : 0,
            "byteLength" : 164736,
            "byteOffset" : 0
        },
        {
            "buffer" : 0,
            "byteLength" : 164736,
            "byteOffset" : 164736
        },
        {
            "buffer" : 0,
            "byteLength" : 66012,
            "byteOffset" : 329472
        }
    ],
    "buffers" : [
        {
            "byteLength" : 395484,
            "uri" : "CCB.bin"
        }
    ]
}
