{
    "asset" : {
        "generator" : "Khronos glTF Blender I/O v1.6.16",
        "version" : "2.0"
    },
    "scene" : 0,
    "scenes" : [
        {
            "name" : "Scene",
            "nodes" : [
                0,
                1,
                2,
                26,
                27,
                28,
                29,
                30,
                31,
                32,
                33,
                34,
                35,
                36,
                37,
                38,
                39
            ]
        }
    ],
    "nodes" : [
        {
            "name" : "Environment",
            "rotation" : [
                0,
                1,
                0,
                -4.371138828673793e-08
            ],
            "scale" : [
                0.30480000376701355,
                0.30480000376701355,
                0.30480000376701355
            ]
        },
        {
            "name" : "\u7269\u9ad4",
            "rotation" : [
                0,
                1,
                0,
                -4.371138828673793e-08
            ],
            "scale" : [
                0.30480000376701355,
                0.30480000376701355,
                0.30480000376701355
            ]
        },
        {
            "name" : "\u7269\u9ad4.001",
            "rotation" : [
                0,
                1,
                0,
                -4.371138828673793e-08
            ],
            "scale" : [
                0.30480000376701355,
                0.30480000376701355,
                0.30480000376701355
            ]
        },
        {
            "mesh" : 0,
            "name" : "\u8907\u5408\u96f6\u4ef6"
        },
        {
            "children" : [
                3
            ],
            "name" : "CDU-1500x3100.001"
        },
        {
            "children" : [
                4
            ],
            "name" : "CDU.001"
        },
        {
            "children" : [
                5
            ],
            "name" : "CDU-1500x3100"
        },
        {
            "name" : "\u7269\u9ad4.006"
        },
        {
            "name" : "\u7269\u9ad4.007"
        },
        {
            "name" : "\u7269\u9ad4.008"
        },
        {
            "children" : [
                6,
                7,
                8,
                9
            ],
            "name" : "CDU"
        },
        {
            "name" : "\u7269\u9ad4.009"
        },
        {
            "name" : "\u7269\u9ad4.010"
        },
        {
            "name" : "\u7269\u9ad4.011"
        },
        {
            "name" : "\u7269\u9ad4.012"
        },
        {
            "children" : [
                10,
                11,
                12,
                13,
                14
            ],
            "name" : "Mechanical Equipment"
        },
        {
            "children" : [
                15
            ],
            "name" : "F20"
        },
        {
            "children" : [
                16
            ],
            "name" : "FAB-03-F20-CHEM.nwc"
        },
        {
            "name" : "\u7269\u9ad4.002"
        },
        {
            "name" : "\u7269\u9ad4.003"
        },
        {
            "name" : "\u7269\u9ad4.004"
        },
        {
            "name" : "\u7269\u9ad4.005"
        },
        {
            "name" : "\u7269\u9ad4.013"
        },
        {
            "name" : "\u7269\u9ad4.014"
        },
        {
            "name" : "\u7269\u9ad4.015"
        },
        {
            "name" : "\u7269\u9ad4.016"
        },
        {
            "children" : [
                17,
                18,
                19,
                20,
                21,
                22,
                23,
                24,
                25
            ],
            "name" : "Chemical System.nwd",
            "rotation" : [
                0,
                1,
                0,
                -4.371138828673793e-08
            ],
            "scale" : [
                0.30480000376701355,
                0.30480000376701355,
                0.30480000376701355
            ]
        },
        {
            "name" : "\u7269\u9ad4.017",
            "rotation" : [
                0,
                1,
                0,
                -4.371138828673793e-08
            ],
            "scale" : [
                0.30480000376701355,
                0.30480000376701355,
                0.30480000376701355
            ]
        },
        {
            "name" : "\u7269\u9ad4.018",
            "rotation" : [
                0,
                1,
                0,
                -4.371138828673793e-08
            ],
            "scale" : [
                0.30480000376701355,
                0.30480000376701355,
                0.30480000376701355
            ]
        },
        {
            "name" : "\u7269\u9ad4.019",
            "rotation" : [
                0,
                1,
                0,
                -4.371138828673793e-08
            ],
            "scale" : [
                0.30480000376701355,
                0.30480000376701355,
                0.30480000376701355
            ]
        },
        {
            "name" : "\u7269\u9ad4.020",
            "rotation" : [
                0,
                1,
                0,
                -4.371138828673793e-08
            ],
            "scale" : [
                0.30480000376701355,
                0.30480000376701355,
                0.30480000376701355
            ]
        },
        {
            "name" : "\u7269\u9ad4.021",
            "rotation" : [
                0,
                1,
                0,
                -4.371138828673793e-08
            ],
            "scale" : [
                0.30480000376701355,
                0.30480000376701355,
                0.30480000376701355
            ]
        },
        {
            "name" : "\u7269\u9ad4.022",
            "rotation" : [
                0,
                1,
                0,
                -4.371138828673793e-08
            ],
            "scale" : [
                0.30480000376701355,
                0.30480000376701355,
                0.30480000376701355
            ]
        },
        {
            "name" : "\u7269\u9ad4.023",
            "rotation" : [
                0,
                1,
                0,
                -4.371138828673793e-08
            ],
            "scale" : [
                0.30480000376701355,
                0.30480000376701355,
                0.30480000376701355
            ]
        },
        {
            "name" : "\u7269\u9ad4.024",
            "rotation" : [
                0,
                1,
                0,
                -4.371138828673793e-08
            ],
            "scale" : [
                0.30480000376701355,
                0.30480000376701355,
                0.30480000376701355
            ]
        },
        {
            "name" : "\u7269\u9ad4.025",
            "rotation" : [
                0,
                1,
                0,
                -4.371138828673793e-08
            ],
            "scale" : [
                0.30480000376701355,
                0.30480000376701355,
                0.30480000376701355
            ]
        },
        {
            "name" : "\u7269\u9ad4.026",
            "rotation" : [
                0,
                1,
                0,
                -4.371138828673793e-08
            ],
            "scale" : [
                0.30480000376701355,
                0.30480000376701355,
                0.30480000376701355
            ]
        },
        {
            "name" : "\u7269\u9ad4.027",
            "rotation" : [
                0,
                1,
                0,
                -4.371138828673793e-08
            ],
            "scale" : [
                0.30480000376701355,
                0.30480000376701355,
                0.30480000376701355
            ]
        },
        {
            "name" : "\u7269\u9ad4.028",
            "rotation" : [
                0,
                1,
                0,
                -4.371138828673793e-08
            ],
            "scale" : [
                0.30480000376701355,
                0.30480000376701355,
                0.30480000376701355
            ]
        },
        {
            "name" : "\u7269\u9ad4.029",
            "rotation" : [
                0,
                1,
                0,
                -4.371138828673793e-08
            ],
            "scale" : [
                0.30480000376701355,
                0.30480000376701355,
                0.30480000376701355
            ]
        }
    ],
    "materials" : [
        {
            "doubleSided" : true,
            "name" : "\u8f2a\u5b501",
            "pbrMetallicRoughness" : {
                "baseColorFactor" : [
                    0,
                    0,
                    0,
                    1
                ],
                "metallicFactor" : 0,
                "roughnessFactor" : 0.2928932309150696
            }
        },
        {
            "doubleSided" : true,
            "name" : "0-33",
            "pbrMetallicRoughness" : {
                "baseColorFactor" : [
                    0,
                    0.7333333492279053,
                    0,
                    1
                ],
                "metallicFactor" : 0,
                "roughnessFactor" : 0.2928932309150696
            }
        },
        {
            "doubleSided" : true,
            "name" : "0-22",
            "pbrMetallicRoughness" : {
                "baseColorFactor" : [
                    1,
                    1,
                    0,
                    1
                ],
                "metallicFactor" : 0,
                "roughnessFactor" : 0.2928932309150696
            }
        },
        {
            "doubleSided" : true,
            "name" : "0-11",
            "pbrMetallicRoughness" : {
                "baseColorFactor" : [
                    1,
                    0,
                    0,
                    1
                ],
                "metallicFactor" : 0,
                "roughnessFactor" : 0.2928932309150696
            }
        }
    ],
    "meshes" : [
        {
            "name" : "\u7db2\u683c",
            "primitives" : [
                {
                    "attributes" : {
                        "POSITION" : 0,
                        "NORMAL" : 1
                    },
                    "indices" : 2,
                    "material" : 0
                },
                {
                    "attributes" : {
                        "POSITION" : 3,
                        "NORMAL" : 4
                    },
                    "indices" : 5,
                    "material" : 1
                },
                {
                    "attributes" : {
                        "POSITION" : 6,
                        "NORMAL" : 7
                    },
                    "indices" : 5,
                    "material" : 2
                },
                {
                    "attributes" : {
                        "POSITION" : 8,
                        "NORMAL" : 9
                    },
                    "indices" : 5,
                    "material" : 3
                }
            ]
        }
    ],
    "accessors" : [
        {
            "bufferView" : 0,
            "componentType" : 5126,
            "count" : 5480,
            "max" : [
                2.1808700561523438,
                3.4894466400146484,
                4.4017333984375
            ],
            "min" : [
                -2.8718338012695312,
                -3.794017791748047,
                -5.90032958984375
            ],
            "type" : "VEC3"
        },
        {
            "bufferView" : 1,
            "componentType" : 5126,
            "count" : 5480,
            "type" : "VEC3"
        },
        {
            "bufferView" : 2,
            "componentType" : 5123,
            "count" : 14364,
            "type" : "SCALAR"
        },
        {
            "bufferView" : 3,
            "componentType" : 5126,
            "count" : 48,
            "max" : [
                1.8936920166015625,
                3.062936782836914,
                4.122955322265625
            ],
            "min" : [
                1.6804428100585938,
                2.898895263671875,
                3.909698486328125
            ],
            "type" : "VEC3"
        },
        {
            "bufferView" : 4,
            "componentType" : 5126,
            "count" : 48,
            "type" : "VEC3"
        },
        {
            "bufferView" : 5,
            "componentType" : 5123,
            "count" : 132,
            "type" : "SCALAR"
        },
        {
            "bufferView" : 6,
            "componentType" : 5126,
            "count" : 48,
            "max" : [
                1.8936920166015625,
                3.259786605834961,
                4.122955322265625
            ],
            "min" : [
                1.6804428100585938,
                3.095745086669922,
                3.909698486328125
            ],
            "type" : "VEC3"
        },
        {
            "bufferView" : 7,
            "componentType" : 5126,
            "count" : 48,
            "type" : "VEC3"
        },
        {
            "bufferView" : 8,
            "componentType" : 5126,
            "count" : 48,
            "max" : [
                1.8936920166015625,
                3.4566383361816406,
                4.122955322265625
            ],
            "min" : [
                1.6804428100585938,
                3.2925949096679688,
                3.909698486328125
            ],
            "type" : "VEC3"
        },
        {
            "bufferView" : 9,
            "componentType" : 5126,
            "count" : 48,
            "type" : "VEC3"
        }
    ],
    "bufferViews" : [
        {
            "buffer" : 0,
            "byteLength" : 65760,
            "byteOffset" : 0
        },
        {
            "buffer" : 0,
            "byteLength" : 65760,
            "byteOffset" : 65760
        },
        {
            "buffer" : 0,
            "byteLength" : 28728,
            "byteOffset" : 131520
        },
        {
            "buffer" : 0,
            "byteLength" : 576,
            "byteOffset" : 160248
        },
        {
            "buffer" : 0,
            "byteLength" : 576,
            "byteOffset" : 160824
        },
        {
            "buffer" : 0,
            "byteLength" : 264,
            "byteOffset" : 161400
        },
        {
            "buffer" : 0,
            "byteLength" : 576,
            "byteOffset" : 161664
        },
        {
            "buffer" : 0,
            "byteLength" : 576,
            "byteOffset" : 162240
        },
        {
            "buffer" : 0,
            "byteLength" : 576,
            "byteOffset" : 162816
        },
        {
            "buffer" : 0,
            "byteLength" : 576,
            "byteOffset" : 163392
        }
    ],
    "buffers" : [
        {
            "byteLength" : 163968,
            "uri" : "CDU.bin"
        }
    ]
}
