{
    "asset" : {
        "generator" : "Khronos glTF Blender I/O v1.6.16",
        "version" : "2.0"
    },
    "scene" : 0,
    "scenes" : [
        {
            "name" : "Scene",
            "nodes" : [
                0,
                1,
                2,
                3,
                4,
                5,
                6,
                7,
                8,
                9,
                10,
                11,
                12,
                13,
                14,
                15,
                42
            ]
        }
    ],
    "nodes" : [
        {
            "name" : "Environment",
            "rotation" : [
                0,
                1,
                0,
                -4.371138828673793e-08
            ],
            "scale" : [
                0.30480000376701355,
                0.30480000376701355,
                0.30480000376701355
            ]
        },
        {
            "name" : "Object",
            "rotation" : [
                0,
                1,
                0,
                -4.371138828673793e-08
            ],
            "scale" : [
                0.30480000376701355,
                0.30480000376701355,
                0.30480000376701355
            ]
        },
        {
            "name" : "Object.001",
            "rotation" : [
                0,
                1,
                0,
                -4.371138828673793e-08
            ],
            "scale" : [
                0.30480000376701355,
                0.30480000376701355,
                0.30480000376701355
            ]
        },
        {
            "name" : "Object.002",
            "rotation" : [
                0,
                1,
                0,
                -4.371138828673793e-08
            ],
            "scale" : [
                0.30480000376701355,
                0.30480000376701355,
                0.30480000376701355
            ]
        },
        {
            "name" : "Object.003",
            "rotation" : [
                0,
                1,
                0,
                -4.371138828673793e-08
            ],
            "scale" : [
                0.30480000376701355,
                0.30480000376701355,
                0.30480000376701355
            ]
        },
        {
            "name" : "Object.004",
            "rotation" : [
                0,
                1,
                0,
                -4.371138828673793e-08
            ],
            "scale" : [
                0.30480000376701355,
                0.30480000376701355,
                0.30480000376701355
            ]
        },
        {
            "name" : "Object.005",
            "rotation" : [
                0,
                1,
                0,
                -4.371138828673793e-08
            ],
            "scale" : [
                0.30480000376701355,
                0.30480000376701355,
                0.30480000376701355
            ]
        },
        {
            "name" : "Object.006",
            "rotation" : [
                0,
                1,
                0,
                -4.371138828673793e-08
            ],
            "scale" : [
                0.30480000376701355,
                0.30480000376701355,
                0.30480000376701355
            ]
        },
        {
            "name" : "Object.007",
            "rotation" : [
                0,
                1,
                0,
                -4.371138828673793e-08
            ],
            "scale" : [
                0.30480000376701355,
                0.30480000376701355,
                0.30480000376701355
            ]
        },
        {
            "name" : "Object.008",
            "rotation" : [
                0,
                1,
                0,
                -4.371138828673793e-08
            ],
            "scale" : [
                0.30480000376701355,
                0.30480000376701355,
                0.30480000376701355
            ]
        },
        {
            "name" : "Object.009",
            "rotation" : [
                0,
                1,
                0,
                -4.371138828673793e-08
            ],
            "scale" : [
                0.30480000376701355,
                0.30480000376701355,
                0.30480000376701355
            ]
        },
        {
            "name" : "Object.010",
            "rotation" : [
                0,
                1,
                0,
                -4.371138828673793e-08
            ],
            "scale" : [
                0.30480000376701355,
                0.30480000376701355,
                0.30480000376701355
            ]
        },
        {
            "name" : "Object.011",
            "rotation" : [
                0,
                1,
                0,
                -4.371138828673793e-08
            ],
            "scale" : [
                0.30480000376701355,
                0.30480000376701355,
                0.30480000376701355
            ]
        },
        {
            "name" : "Object.012",
            "rotation" : [
                0,
                1,
                0,
                -4.371138828673793e-08
            ],
            "scale" : [
                0.30480000376701355,
                0.30480000376701355,
                0.30480000376701355
            ]
        },
        {
            "name" : "Object.013",
            "rotation" : [
                0,
                1,
                0,
                -4.371138828673793e-08
            ],
            "scale" : [
                0.30480000376701355,
                0.30480000376701355,
                0.30480000376701355
            ]
        },
        {
            "name" : "Object.014",
            "rotation" : [
                0,
                1,
                0,
                -4.371138828673793e-08
            ],
            "scale" : [
                0.30480000376701355,
                0.30480000376701355,
                0.30480000376701355
            ]
        },
        {
            "name" : "Object.016"
        },
        {
            "name" : "Object.017"
        },
        {
            "name" : "Object.018"
        },
        {
            "name" : "Object.019"
        },
        {
            "name" : "Object.020"
        },
        {
            "name" : "Object.021"
        },
        {
            "name" : "Object.022"
        },
        {
            "name" : "Object.026"
        },
        {
            "name" : "Object.023"
        },
        {
            "children" : [
                24
            ],
            "name" : "Pneumatic Diaphragm Pump-Sump PDPS108.002"
        },
        {
            "name" : "Object.024"
        },
        {
            "children" : [
                26
            ],
            "name" : "Pneumatic Diaphragm Pump-Sump PDPS108.003"
        },
        {
            "name" : "Object.025"
        },
        {
            "children" : [
                28
            ],
            "name" : "Pneumatic Diaphragm Pump-Sump PDPS108.004"
        },
        {
            "mesh" : 0,
            "name" : "Pneumatic Diaphragm Pump-Sump PDPS108.006"
        },
        {
            "children" : [
                30
            ],
            "name" : "Pneumatic Diaphragm Pump-Sump PDPS108.005"
        },
        {
            "children" : [
                25,
                27,
                29,
                31
            ],
            "name" : "Pneumatic Diaphragm Pump-Sump PDPS108.001"
        },
        {
            "children" : [
                32
            ],
            "name" : "Pneumatic Diaphragm Pump-Sump PDPS108"
        },
        {
            "children" : [
                16,
                17,
                18,
                19,
                20,
                21,
                22,
                23,
                33
            ],
            "name" : "Mechanical Equipment"
        },
        {
            "name" : "Object.027"
        },
        {
            "name" : "Object.028"
        },
        {
            "children" : [
                34,
                35,
                36
            ],
            "name" : "FB1"
        },
        {
            "name" : "Object.015"
        },
        {
            "name" : "Object.029"
        },
        {
            "name" : "Object.030"
        },
        {
            "name" : "Object.031"
        },
        {
            "children" : [
                37,
                38,
                39,
                40,
                41
            ],
            "name" : "Waste Water Treatment & Reclaim System.nwd",
            "rotation" : [
                0,
                1,
                0,
                -4.371138828673793e-08
            ],
            "scale" : [
                0.30480000376701355,
                0.30480000376701355,
                0.30480000376701355
            ]
        }
    ],
    "materials" : [
        {
            "doubleSided" : true,
            "name" : "\u5f69\u73fe\u6750\u6599 255-255-255",
            "pbrMetallicRoughness" : {
                "baseColorFactor" : [
                    0.9882352948188782,
                    0.9960784316062927,
                    0.886274516582489,
                    1
                ],
                "metallicFactor" : 0,
                "roughnessFactor" : 0.2928932309150696
            }
        }
    ],
    "meshes" : [
        {
            "name" : "Mesh",
            "primitives" : [
                {
                    "attributes" : {
                        "POSITION" : 0,
                        "NORMAL" : 1
                    },
                    "indices" : 2,
                    "material" : 0
                }
            ]
        }
    ],
    "accessors" : [
        {
            "bufferView" : 0,
            "componentType" : 5126,
            "count" : 11863,
            "max" : [
                0.548858642578125,
                0.7965965270996094,
                0.478851318359375
            ],
            "min" : [
                -0.5502243041992188,
                -0.8339805603027344,
                -0.479156494140625
            ],
            "type" : "VEC3"
        },
        {
            "bufferView" : 1,
            "componentType" : 5126,
            "count" : 11863,
            "type" : "VEC3"
        },
        {
            "bufferView" : 2,
            "componentType" : 5123,
            "count" : 28620,
            "type" : "SCALAR"
        }
    ],
    "bufferViews" : [
        {
            "buffer" : 0,
            "byteLength" : 142356,
            "byteOffset" : 0
        },
        {
            "buffer" : 0,
            "byteLength" : 142356,
            "byteOffset" : 142356
        },
        {
            "buffer" : 0,
            "byteLength" : 57240,
            "byteOffset" : 284712
        }
    ],
    "buffers" : [
        {
            "byteLength" : 341952,
            "uri" : "Pneumatic.bin"
        }
    ]
}
